# xmcd
#
# Track frame offsets: 
#        150
#        11396
#        23094
#        35040
#        49905
#        68103
#        79525
#        89468
#        98393
#        115095
#        128933
#        148205
#        160207
#        172270
#        186248
#        195126
#        207715
#        214950
#        226276
#        241602
#
# Disc length: 3374 seconds
#
# Revision: 0
# Processed by: cddbd v1.5.2PL0 Copyright (c) Steve Scherf et al.
# Submitted via: ExactAudioCopy v1.0b4
#
DISCID=110d2c14
DTITLE=Various Artist - The Best of American Folk and Blues [CD1]
DYEAR=2016
DGENRE=Blues
TTITLE0=Albert King - I Get Evil
TTITLE1=Bob Dylan - Baby, Let Me Follow You Down
TTITLE2=Freddy King - Hide Away
TTITLE3=B.B. King - Hold That Train
TTITLE4=Brownie McGhee - Crying At the Station
TTITLE5=Eddie Kirkland - Train Done Gone
TTITLE6=Pete Seeger - Casey Jones
TTITLE7=Lightnin' Slim - Too Close Blues
TTITLE8=Jimmy Witherspoon - Stormy Monday
TTITLE9=The Kingston Trio - Where Have All The Flowers Gone?
TTITLE10=Memphis Slim - Stewball
TTITLE11=Lightnin' Hopkins - Highway Blues
TTITLE12=Paul Clayton - Roll On, Buddy
TTITLE13=Shakey Jake - Love My Baby
TTITLE14=Lori Holland - Jack Went a Sailing
TTITLE15=Muddy Waters - Just Make Love To Me
TTITLE16=Pat Foster - Johnny Runkins
TTITLE17=Slim Harpo - Rainin' In My Heart
TTITLE18=Sonny Terry and Brownie McGhee - I'm Crazy 'Bout You Baby
TTITLE19=John Lee Hooker - Boom Boom
EXTD=
EXTT0=
EXTT1=
EXTT2=
EXTT3=
EXTT4=
EXTT5=
EXTT6=
EXTT7=
EXTT8=
EXTT9=
EXTT10=
EXTT11=
EXTT12=
EXTT13=
EXTT14=
EXTT15=
EXTT16=
EXTT17=
EXTT18=
EXTT19=
PLAYORDER=
